<?xml version="1.0" standalone="no"?><!DOCTYPE svg PUBLIC "-//W3C//DTD SVG 1.1//EN" "http://www.w3.org/Graphics/SVG/1.1/DTD/svg11.dtd"><svg t="1626657151072" class="icon" viewBox="0 0 1024 1024" version="1.1" xmlns="http://www.w3.org/2000/svg" p-id="6022" xmlns:xlink="http://www.w3.org/1999/xlink" width="200" height="200"><defs><style type="text/css"></style></defs><path d="M808.96 392.533333c-30.72-23.893333-180.906667-136.533333-402.773333-136.533333-61.44 0-153.6 0-235.52 34.133333H51.2c-6.826667 0-13.653333 3.413333-17.066667 10.24 0 6.826667 0 13.653333 3.413334 20.48l34.133333 34.133334C23.893333 395.946667 0 447.146667 0 512c0 3.413333 3.413333 180.906667 78.506667 187.733333 20.48 40.96 61.44 68.266667 109.226666 68.266667 47.786667 0 88.746667-27.306667 105.813334-68.266667h399.36c20.48 40.96 61.44 68.266667 105.813333 68.266667s88.746667-27.306667 105.813333-68.266667h54.613334c20.48 0 61.44-23.893333 61.44-61.44v-105.813333c3.413333-40.96-58.026667-136.533333-211.626667-139.946667zM443.733333 375.466667c0-10.24 6.826667-17.066667 17.066667-17.066667s17.066667 6.826667 17.066667 17.066667v51.2h187.733333c10.24 0 17.066667 6.826667 17.066667 17.066666s-6.826667 17.066667-17.066667 17.066667h-204.8c-10.24 0-17.066667-6.826667-17.066667-17.066667v-68.266666zM187.733333 733.866667c-37.546667 0-71.68-27.306667-81.92-61.44 0-3.413333-3.413333-6.826667-3.413333-10.24V648.533333c0-47.786667 37.546667-85.333333 85.333333-85.333333S273.066667 600.746667 273.066667 648.533333v13.653334c0 3.413333-3.413333 10.24-3.413334 13.653333-13.653333 34.133333-44.373333 58.026667-81.92 58.026667z m614.4 0c-37.546667 0-71.68-27.306667-81.92-61.44 0-3.413333-3.413333-6.826667-3.413333-10.24V648.533333c0-47.786667 37.546667-85.333333 85.333333-85.333333S887.466667 600.746667 887.466667 648.533333v13.653334c0 3.413333-3.413333 10.24-3.413334 13.653333-13.653333 34.133333-44.373333 58.026667-81.92 58.026667z" fill="" p-id="6023"></path></svg>