<?xml version="1.0" standalone="no"?><!DOCTYPE svg PUBLIC "-//W3C//DTD SVG 1.1//EN" "http://www.w3.org/Graphics/SVG/1.1/DTD/svg11.dtd"><svg t="1628564734458" class="icon" viewBox="0 0 1177 1024" version="1.1" xmlns="http://www.w3.org/2000/svg" p-id="1692" xmlns:xlink="http://www.w3.org/1999/xlink" width="229.8828125" height="200"><defs><style type="text/css"></style></defs><path d="M1157.0176 193.024L882.7904 6.144a34.7392 34.7392 0 0 0-39.424 0l-254.6432 173.3888L334.0288 6.144a34.8672 34.8672 0 0 0-39.5008 0L19.2512 193.024C7.7312 200.9088 0 215.04 0 230.4v747.3152c0 15.7184 8.064 30.208 20.096 37.9648a35.2512 35.2512 0 0 0 39.0912-0.5888l254.8992-173.4144 254.8736 173.4144c12.2368 8.2432 27.392 8.2432 39.552 0l254.8224-173.4144 254.7968 173.4144c6.0672 4.096 12.9024 6.2464 19.7888 6.2464 6.4256 0 12.3392-1.9712 18.2784-5.6576 12.032-7.7824 18.7904-22.272 18.7904-37.9648V230.4256c0-15.36-6.3744-29.5424-17.9712-37.376zM270.1312 769.3568l-186.2144 131.4048V257.7408l186.2144-131.4816v643.072z m83.9424-1.28V441.7024c3.072 1.9968 6.0416 4.0448 8.8832 6.1184l24.4736-34.56c-10.24-7.4752-21.76-14.6432-33.3568-20.5056V124.9792l191.4624 130.304v288.768a202.624 202.624 0 0 1-41.7024-20.4032l-22.2208 36.096a242.1504 242.1504 0 0 0 54.3232 25.9584l9.6-30.0032v342.5792l-191.488-130.2272z m275.3792 130.2272V596.7616l2.7392-0.1536c7.6288-0.512 15.1552-1.3568 22.3232-2.5088l-6.4768-42.0352a213.7344 213.7344 0 0 1-18.5856 2.0992V255.2832l191.4624-130.304v315.9552l-12.6976-11.6224c-7.8592 8.8064-15.3088 17.4848-22.5024 25.856-4.736 5.504-9.3952 10.9312-14.0032 16.2048l31.4112 28.2368c4.6848-5.376 9.4208-10.88 14.2336-16.4864l3.5584-4.1216V768l-191.4624 130.2528z m461.5936-0.2048l-186.2144-128.8448V405.0944a140.8 140.8 0 0 1 30.5408-10.0864l-8.32-41.728c-7.5008 1.536-14.8992 3.584-22.2208 6.0672V126.208l186.2144 128.896V898.048z" p-id="1693"></path><path d="M255.1552 417.8688c5.8112-3.1744-3.5584-2.8416 2.6624-4.864l-12.928-40.4992a150.016 150.016 0 0 0-25.088 10.88 147.968 147.968 0 0 0-29.7728 21.9648l28.5696 31.1808c6.8608-6.4768 29.6192-14.848 36.5568-18.6624zM694.5024 537.6l18.3296 38.2976a220.6208 220.6208 0 0 0 50.0736-34.5088l-27.8016-31.8976A179.5072 179.5072 0 0 1 694.5024 537.6zM176.6656 510.6944c4.9664-15.7696 9.2672-29.3888 18.688-43.3664l-34.6112-24.064c-12.9024 19.1488-18.56 37.12-24.064 54.4768l-0.6144 1.9968 39.9616 12.9792 0.64-2.048zM436.1984 462.1312a1378.816 1378.816 0 0 0-7.9616-9.5744l-31.9488 27.5968c2.5856 3.072 5.1456 6.1952 7.7056 9.2928 9.4208 11.4176 19.1744 23.2448 30.464 34.048l28.8256-30.8992c-9.4976-9.1136-18.048-19.4816-27.0848-30.464zM986.5472 440.6016l27.136-27.4944 27.136 27.4944 29.6704-30.08-27.136-27.52 27.136-27.52-29.696-30.08-27.136 27.4944-27.1104-27.4944-29.6704 30.08 27.136 27.52-27.136 27.52z" p-id="1694"></path></svg>