<?xml version="1.0" standalone="no"?><!DOCTYPE svg PUBLIC "-//W3C//DTD SVG 1.1//EN" "http://www.w3.org/Graphics/SVG/1.1/DTD/svg11.dtd"><svg t="1627281318713" class="icon" viewBox="0 0 1024 1024" version="1.1" xmlns="http://www.w3.org/2000/svg" p-id="1723" xmlns:xlink="http://www.w3.org/1999/xlink" width="200" height="200"><defs><style type="text/css"></style></defs><path d="M512 0C229.234 0 0 229.234 0 512s229.234 512 512 512 512-229.234 512-512A512 512 0 0 0 512 0z m0 938.667C276.366 938.667 85.333 747.634 85.333 512S276.366 85.333 512 85.333 938.667 276.366 938.667 512A426.667 426.667 0 0 1 512 938.667z m0-717.654A170.667 170.667 0 0 0 341.333 391.68a42.667 42.667 0 0 0 85.334 0A85.333 85.333 0 1 1 512 477.013a42.667 42.667 0 0 0-42.667 42.667v111.36a42.667 42.667 0 0 0 85.334 0V556.8A170.667 170.667 0 0 0 512 221.013z m-42.667 542.294a42.667 42.667 0 1 0 85.334 0 42.667 42.667 0 0 0-85.334 0z" p-id="1724"></path></svg>